<svg xmlns="http://www.w3.org/2000/svg" viewBox="0 0 64 64"><path fill="var(--icon-color-accent, #ff8700)" d="M15 17h34c1.1 0 2 .9 2 2v5H13v-5c0-1.1.9-2 2-2Z"/><path fill="currentColor" fill-rule="evenodd" d="M15 13h34c3.31 0 6 2.69 6 6v26c0 3.31-2.69 6-6 6H15c-3.31 0-6-2.69-6-6V19c0-3.31 2.69-6 6-6Zm0 4c-1.1 0-2 .9-2 2v26c0 1.1.9 2 2 2h34c1.1 0 2-.9 2-2V19c0-1.1-.9-2-2-2H15Z"/><path fill="currentColor" d="M13 24h38v2H13zm0 8.25h38v1.5H13zm0 8h38v1.5H13z"/><path fill="currentColor" d="M26 24h1.5v23H26zm11 0h1.5v23H37z"/></svg>
